<!--?xml version="1.0" standalone="no"?-->
              <svg id="sw-js-blob-svg" viewBox="0 0 100 100" xmlns="http://www.w3.org/2000/svg" version="1.1">
                    <defs> 
                        <linearGradient id="sw-gradient" x1="0" x2="1" y1="1" y2="0">
                            <stop id="stop1" stop-color="rgba(248, 117, 55, 1)" offset="0%"></stop>
                            <stop id="stop2" stop-color="rgba(251, 168, 31, 1)" offset="100%"></stop>
                        </linearGradient>
                    </defs>
                <path fill="url(#sw-gradient)" d="M24.3,-30.7C31.5,-28.1,37.5,-21.1,38.9,-13.4C40.4,-5.7,37.4,2.8,33.8,10C30.1,17.3,25.8,23.5,20.1,29.6C14.3,35.7,7.2,41.7,-0.5,42.4C-8.1,43.1,-16.3,38.3,-21.8,32.2C-27.4,26,-30.4,18.4,-32.4,10.8C-34.5,3.3,-35.5,-4.3,-34.5,-12.4C-33.5,-20.5,-30.4,-29,-24.3,-32C-18.2,-35,-9.1,-32.3,-0.3,-31.9C8.5,-31.5,17,-33.3,24.3,-30.7Z" width="100%" height="100%" transform="translate(50 50)" stroke-width="0" style="transition: 0.3s;" stroke="url(#sw-gradient)"></path>
              </svg>